<svg width="512" height="512" xmlns="http://www.w3.org/2000/svg">

 <g>
  <title>background</title>
  <rect fill="none" id="canvas_background" height="402" width="582" y="-1" x="-1"/>
 </g>
 <g>
  <title>Layer 1</title>
  <rect fill="#168de2" fill-opacity="0" fill-rule="nonzero" y="0.717055" x="0" width="512" ry="64" rx="64" id="rect2987" height="512"/>
  <path stroke="null" fill="#5aa2fa" id="path24_3_" d="m328.463743,250.867815c-2.512196,-48.920697 -38.837161,-78.345447 -82.703549,-78.345447l-1.651573,0c-50.620444,0 -78.689501,39.805782 -78.689501,85.026258c0,50.62206 33.957468,82.602333 78.498399,82.602333c49.643404,0 82.294824,-36.373139 84.657464,-79.388929l-0.111561,-9.894216l0.000321,0zm-84.108887,-122.135536c33.822794,0 65.628462,14.951745 88.97402,38.3636l0,0.087297c0,-11.234872 7.564713,-19.708558 18.061997,-19.708558l2.658355,-0.017813c16.417051,0 19.798123,15.541558 19.798123,20.457941l0.074352,174.724766c-1.16136,11.444241 11.808189,17.352534 18.994084,10.005445c28.060648,-28.833487 61.621031,-148.22918 -17.442277,-217.391655c-73.683388,-64.495437 -172.553228,-53.871921 -225.134215,-17.626751c-55.902235,38.551471 -91.663897,123.886865 -56.922271,204.030044c37.876772,87.408936 146.251985,113.480927 210.667505,87.472002c32.616656,-13.163882 47.676244,30.923526 13.802035,45.33186c-51.179024,21.797026 -193.647684,19.597208 -260.195133,-95.687924c-44.964693,-77.837122 -42.582004,-214.794729 76.680785,-285.748365c91.225265,-54.297253 211.508256,-39.269143 284.035307,36.474576c75.811742,79.182801 71.382342,227.466782 -2.553587,285.106925c-33.505581,26.19486 -83.271865,0.711067 -82.957883,-37.453177l-0.340658,-12.476083c-23.32874,23.147817 -54.378553,36.653983 -88.201347,36.653983c-66.8265,0 -125.629607,-58.78484 -125.629607,-125.622991c0,-67.480995 58.803107,-126.975442 125.629607,-126.975442l0,0"/>
  <path fill="#000000" fill-opacity="0" fill-rule="nonzero" id="rect2984-1" d="m18.69574,493.28751c11.56798,11.5679 27.57606,18.7125 45.30404,18.7125l384.01255,-0.029c35.456,0 63.9877,-28.5316 63.9877,-63.98759l0,-383.98369c0,-17.72798 -7.1446,-33.73603 -18.7126,-45.30403l-474.59169,474.59181z"/>
 </g>
</svg>